<svg xmlns="http://www.w3.org/2000/svg" viewBox="0 0 400 300" data-imageid="receptionist-outline" imageName="Receptionist" class="illustrations_image" style="width: 166px;"><g id="_17_receptionist_outline" data-name="#17_receptionist_outline"><rect x="88.38" y="219.08" width="223.25" height="11.4" rx="5.7" fill="#f56132"/><path d="M305.92,231.48H94.08a6.7,6.7,0,0,1,0-13.4H305.92a6.7,6.7,0,0,1,0,13.4ZM94.08,220.08a4.7,4.7,0,0,0,0,9.4H305.92a4.7,4.7,0,0,0,0-9.4Z" fill="#093f68"/><path d="M239.47,201.59S229,179.49,220.4,168a13.8,13.8,0,0,0-12.12-6.65H189.6c-7.37,0-11.2,6-11.2,6-8.56,11.48-20,34.2-20,34.2L179.56,203v16.17h38.77V203Z" fill="#007bff" class="target-color"/><path d="M218.33,220.19H179.56a1,1,0,0,1-1-1V204l-20.21-1.37a1,1,0,0,1-.8-.51,1,1,0,0,1,0-.94c.12-.23,11.57-22.93,20.08-34.34a14.9,14.9,0,0,1,12-6.44h18.68a14.73,14.73,0,0,1,13,7.11c8.51,11.44,19,33.47,19.12,33.69a1,1,0,0,1,0,.93,1,1,0,0,1-.8.5L219.33,204v15.23A1,1,0,0,1,218.33,220.19Zm-37.77-2h36.77V203a1,1,0,0,1,.93-1l19.66-1.33c-2.4-4.94-11.12-22.42-18.32-32.08a.64.64,0,0,1-.08-.14,12.73,12.73,0,0,0-11.24-6.11H189.6c-6.7,0-10.32,5.52-10.35,5.57-7.26,9.73-16.66,27.72-19.26,32.76L179.62,202a1,1,0,0,1,.94,1Z" fill="#093f68"/><polygon points="194.68 162.19 200.16 195.84 205.64 162.19 194.68 162.19" fill="#fff"/><path d="M200.16,196.84a1,1,0,0,1-1-.84l-5.48-33.64a1,1,0,0,1,.23-.81,1,1,0,0,1,.76-.35h11a1,1,0,0,1,.76.35,1,1,0,0,1,.23.81L201.15,196A1,1,0,0,1,200.16,196.84Zm-4.3-33.64,4.3,26.42,4.3-26.42Z" fill="#093f68"/><ellipse cx="170.99" cy="82.51" rx="26.28" ry="26.35" fill="#725858"/><path d="M171,109.86a27.36,27.36,0,1,1,27.28-27.35A27.34,27.34,0,0,1,171,109.86Zm0-52.71a25.36,25.36,0,1,0,25.28,25.36A25.34,25.34,0,0,0,171,57.15Z" fill="#093f68"/><path d="M198.94,67.36h0a37.74,37.74,0,0,1,37.74,37.74v25.34a0,0,0,0,1,0,0H161.2a0,0,0,0,1,0,0V105.1A37.74,37.74,0,0,1,198.94,67.36Z" fill="#725858"/><path d="M236.68,131.44H161.2a1,1,0,0,1-1-1V105.1a38.74,38.74,0,0,1,77.48,0v25.34A1,1,0,0,1,236.68,131.44Zm-74.48-2h73.48V105.1a36.74,36.74,0,0,0-73.48,0Z" fill="#093f68"/><path d="M194.68,155.86h11a0,0,0,0,1,0,0v6.33a4.66,4.66,0,0,1-4.66,4.66h-1.64a4.66,4.66,0,0,1-4.66-4.66v-6.33A0,0,0,0,1,194.68,155.86Z" fill="#ffc9b0"/><path d="M201,167.85h-1.64a5.66,5.66,0,0,1-5.66-5.65v-6.34a1,1,0,0,1,1-1h11a1,1,0,0,1,1,1v6.34A5.66,5.66,0,0,1,201,167.85Zm-5.3-11v5.34a3.66,3.66,0,0,0,3.66,3.65H201a3.66,3.66,0,0,0,3.66-3.65v-5.34Z" fill="#093f68"/><ellipse cx="168.84" cy="127.31" rx="10.65" ry="9.2" fill="#ffc9b0"/><path d="M168.84,137.51c-6.42,0-11.65-4.57-11.65-10.2s5.23-10.2,11.65-10.2,11.65,4.58,11.65,10.2S175.26,137.51,168.84,137.51Zm0-18.4c-5.32,0-9.65,3.68-9.65,8.2s4.33,8.2,9.65,8.2,9.65-3.68,9.65-8.2S174.16,119.11,168.84,119.11Z" fill="#093f68"/><ellipse cx="230.91" cy="127.31" rx="10.65" ry="9.2" fill="#ffc9b0"/><path d="M230.91,137.51c-6.42,0-11.64-4.57-11.64-10.2s5.22-10.2,11.64-10.2,11.65,4.58,11.65,10.2S237.34,137.51,230.91,137.51Zm0-18.4c-5.32,0-9.64,3.68-9.64,8.2s4.32,8.2,9.64,8.2,9.65-3.68,9.65-8.2S236.23,119.11,230.91,119.11Z" fill="#093f68"/><path d="M200.16,157.3h0A32.16,32.16,0,0,1,168,125.1V110.18C168,102.44,179.83,88,187.55,88c0,0,1.25,7.32,13.38,13.72,8.49,4.48,20.46,4.78,31.34-2.81v26.2A32.15,32.15,0,0,1,200.16,157.3Z" fill="#ffc9b0"/><path d="M200.16,158.3A33.2,33.2,0,0,1,167,125.1V110.18C167,102,179.1,87,187.54,87a1,1,0,0,1,1,.83c0,.06,1.4,7,12.87,13,7.25,3.83,19,5.12,30.3-2.75a1,1,0,0,1,1-.07,1,1,0,0,1,.53.89v26.2A33.19,33.19,0,0,1,200.16,158.3ZM186.8,89.05C180.4,90,169,102.19,169,110.18V125.1a31.12,31.12,0,1,0,62.23,0V100.76c-11.53,7.21-23.37,5.76-30.81,1.84C190.37,97.27,187.53,91.28,186.8,89.05Z" fill="#093f68"/><ellipse cx="185.29" cy="120.41" rx="2.97" ry="2.98" fill="#093f68"/><ellipse cx="215.96" cy="120.41" rx="2.97" ry="2.98" fill="#093f68"/><path d="M211.88,134.8a11.72,11.72,0,1,1-23.44,0Z" fill="#fff"/><path d="M200.16,147.55a12.75,12.75,0,0,1-12.72-12.75,1,1,0,0,1,1-1h23.44a1,1,0,0,1,1,1A12.75,12.75,0,0,1,200.16,147.55ZM189.49,135.8a10.71,10.71,0,0,0,21.34,0Z" fill="#093f68"/><path d="M200,131.43a17.8,17.8,0,0,1-2.91-.24,1,1,0,0,1,.34-2,13.79,13.79,0,0,0,4.33.06c.14-.91-1-4-2.5-7a1,1,0,0,1,1.78-.92c1,2,3.38,6.9,2.52,8.83a1.68,1.68,0,0,1-1.13,1A10.39,10.39,0,0,1,200,131.43Z" fill="#093f68"/><path d="M177.19,113.3a2,2,0,0,1,0-4l14.18-.18a2,2,0,1,1,0,4l-14.18.18Z" fill="#093f68"/><path d="M224.43,113h0L210.24,113a2,2,0,0,1-2-2,2,2,0,0,1,2-2l14.18.09a2,2,0,0,1,0,4Z" fill="#093f68"/><path d="M196.62,200.23a3.62,3.62,0,0,0,2.32-3.39V174c0-2.89-3.86-.73-4.26,2.73a105.76,105.76,0,0,1-3.08,13.88c-.58,1.35-7.41,4.33-7.41,4.33l4.25,8.49Z" fill="#ffc9b0"/><path d="M188.44,204.38a1,1,0,0,1-.89-.55l-4.26-8.48a1,1,0,0,1,0-.79,1,1,0,0,1,.54-.57c3-1.31,6.48-3.16,6.9-3.84a107.24,107.24,0,0,0,3-13.58c.32-2.86,2.67-5.1,4.4-4.95a2.06,2.06,0,0,1,1.85,2.34v22.88a4.66,4.66,0,0,1-3,4.33l-8.17,3.15A1.13,1.13,0,0,1,188.44,204.38Zm-2.89-9,3.38,6.73,7.33-2.82h0a2.66,2.66,0,0,0,1.68-2.46V174a1.87,1.87,0,0,0,0-.34,1.69,1.69,0,0,0-.69.35,4.3,4.3,0,0,0-1.55,2.83A106.08,106.08,0,0,1,192.52,191C192,192.29,188.25,194.17,185.55,195.39Z" fill="#093f68"/><path d="M187.54,190.57c.19.58.9,13.59.9,13.59s-17.1,9.35-23.46,10.12c-5,.6-12.14-10.89-3.74-15C164.74,197.51,187.54,190.57,187.54,190.57Z" fill="#007bff" class="target-color"/><path d="M164.59,215.3c-3.31,0-6.71-3.8-7.8-7.47-1.22-4.1.28-7.65,4-9.49,3.53-1.74,25.51-8.44,26.44-8.72a1,1,0,0,1,1.24.64c.16.47.48,5.13,1,13.85a1,1,0,0,1-.52.93c-.7.39-17.34,9.44-23.82,10.23Zm22.09-23.42c-4.67,1.43-22.06,6.81-25,8.26-3.87,1.9-3.52,5.28-3,7.12,1,3.36,4,6.31,6.16,6,5.47-.66,19.58-8.1,22.55-9.69C187.19,199.69,186.87,194.21,186.68,191.88Z" fill="#093f68"/><path d="M201.27,200.23a3.63,3.63,0,0,1-2.33-3.39V174c0-2.89,3.87-.73,4.26,2.73a105.56,105.56,0,0,0,3.09,13.88c.57,1.35,7.41,4.33,7.41,4.33l-4.26,8.49Z" fill="#ffc9b0"/><path d="M209.44,204.38a1.13,1.13,0,0,1-.36-.06l-8.17-3.15h0a4.66,4.66,0,0,1-3-4.33V174a2.06,2.06,0,0,1,1.85-2.34h.12c1.71,0,4,2.16,4.29,5a105.21,105.21,0,0,0,3,13.61c.41.65,3.9,2.5,6.9,3.81a1,1,0,0,1,.54.57,1,1,0,0,1,0,.79l-4.26,8.48A1,1,0,0,1,209.44,204.38ZM200,173.62a1.14,1.14,0,0,0,0,.34v22.88a2.66,2.66,0,0,0,1.69,2.46h0l7.32,2.82,3.38-6.73c-2.7-1.22-6.4-3.1-7-4.42a105.92,105.92,0,0,1-3.16-14.17,4.3,4.3,0,0,0-1.55-2.83A1.62,1.62,0,0,0,200,173.62Z" fill="#093f68"/><path d="M210.35,190.57c-.2.58-.91,13.59-.91,13.59s17.1,9.35,23.46,10.12c5,.6,12.15-10.89,3.74-15C233.14,197.51,210.35,190.57,210.35,190.57Z" fill="#007bff" class="target-color"/><path d="M233.29,215.3l-.51,0c-6.48-.79-23.11-9.84-23.82-10.23a1,1,0,0,1-.52-.93c.48-8.72.8-13.38,1-13.85a1,1,0,0,1,1.24-.64c.93.28,22.91,7,26.45,8.72,3.73,1.84,5.23,5.39,4,9.49C240,211.5,236.6,215.3,233.29,215.3Zm-22.82-11.71c3,1.59,17.08,9,22.55,9.69,2.16.28,5.16-2.66,6.16-6,.55-1.84.89-5.22-3-7.12-2.94-1.45-20.33-6.83-25-8.26C211,194.21,210.69,199.69,210.47,203.59Z" fill="#093f68"/><path d="M179.49,194.07a1,1,0,0,1-.93-.62c-.12-.29-3-7.23-.58-11.74a46.72,46.72,0,0,1,4.94-7.4,1,1,0,0,1,1.4-.12,1,1,0,0,1,.12,1.41,46.76,46.76,0,0,0-4.7,7.05c-2,3.67.64,10,.67,10a1,1,0,0,1-.54,1.31A1,1,0,0,1,179.49,194.07Z" fill="#093f68"/><path d="M219.79,194.07a1.09,1.09,0,0,1-.39-.08,1,1,0,0,1-.53-1.31c0-.07,2.63-6.36.67-10a45.52,45.52,0,0,0-4.71-7.05,1,1,0,0,1,.12-1.41,1,1,0,0,1,1.41.12,46.72,46.72,0,0,1,4.94,7.4c2.41,4.51-.46,11.45-.59,11.74A1,1,0,0,1,219.79,194.07Z" fill="#093f68"/><rect x="248.67" y="166.05" width="56.95" height="38.86" rx="4.68" fill="#ffbc0e"/><path d="M300.94,205.91H253.35a5.69,5.69,0,0,1-5.68-5.69V170.73a5.69,5.69,0,0,1,5.68-5.68h47.59a5.69,5.69,0,0,1,5.68,5.68v29.49A5.69,5.69,0,0,1,300.94,205.91Zm-47.59-38.86a3.68,3.68,0,0,0-3.68,3.68v29.49a3.69,3.69,0,0,0,3.68,3.69h47.59a3.69,3.69,0,0,0,3.68-3.69V170.73a3.68,3.68,0,0,0-3.68-3.68Z" fill="#093f68"/><polygon points="283.11 214.3 271.18 214.3 272.45 189.24 281.84 189.24 283.11 214.3" fill="#093f68"/><path d="M283.11,215.3H271.18a1,1,0,0,1-.73-.31,1.06,1.06,0,0,1-.27-.74l1.27-25.06a1,1,0,0,1,1-.95h9.39a1,1,0,0,1,1,.95l1.27,25.06a1,1,0,0,1-.28.74A1,1,0,0,1,283.11,215.3Zm-10.88-2h9.83l-1.17-23.06H273.4Z" fill="#093f68"/><rect x="263.26" y="214.3" width="27.76" height="4.78" rx="1.69" fill="#ffbc0e"/><path d="M289.33,220.08H265a2.7,2.7,0,0,1-2.7-2.7V216a2.7,2.7,0,0,1,2.7-2.69h24.37A2.69,2.69,0,0,1,292,216v1.39A2.69,2.69,0,0,1,289.33,220.08ZM265,215.3a.7.7,0,0,0-.7.69v1.39a.71.71,0,0,0,.7.7h24.37a.7.7,0,0,0,.69-.7V216a.69.69,0,0,0-.69-.69Z" fill="#093f68"/><rect x="98.41" y="230.48" width="203.18" height="13.29" fill="#f56132"/><path d="M301.59,244.77H98.41a1,1,0,0,1-1-1V230.48a1,1,0,0,1,1-1H301.59a1,1,0,0,1,1,1v13.29A1,1,0,0,1,301.59,244.77Zm-202.18-2H300.59V231.48H99.41Z" fill="#093f68"/><path d="M109.48,207.73s-5.43-11.08-4.67-18.56a13.85,13.85,0,0,1,6.47,7.81c3.22,8.92,2.48,10.76,2.48,10.76Z" fill="#70cc40"/><path d="M113.76,208.74h-4.28a1,1,0,0,1-.89-.56c-.23-.46-5.55-11.42-4.78-19.1a1,1,0,0,1,1.41-.81,14.78,14.78,0,0,1,7,8.38c3.11,8.61,2.67,11,2.46,11.48A1,1,0,0,1,113.76,208.74Zm-3.64-2h2.72c-.06-1.08-.45-3.75-2.5-9.42a13.69,13.69,0,0,0-4.61-6.38C105.83,197,109.15,204.62,110.12,206.74Z" fill="#093f68"/><path d="M112.07,207.2s-4.08-15.8,1.78-26.37c0,0,3.38,3.86,4.19,13.21A23.59,23.59,0,0,1,115.6,207Z" fill="#70cc40"/><path d="M112.07,208.2a1,1,0,0,1-1-.75c-.17-.66-4.11-16.31,1.88-27.11a1,1,0,0,1,1.63-.17c.14.17,3.6,4.22,4.43,13.79a24.34,24.34,0,0,1-2.58,13.51,1,1,0,0,1-.79.49l-3.54.24Zm1.9-25.37c-3.85,8.66-1.79,20.2-1.12,23.31L115,206a23.32,23.32,0,0,0,2.08-11.87A28.09,28.09,0,0,0,114,182.83Z" fill="#093f68"/><path d="M113.83,206.7s1.27-10.54,9.79-17.42c0,0,2.51,7.85-4.53,18.36Z" fill="#70cc40"/><path d="M119.09,208.64l-.17,0-5.26-.93a1,1,0,0,1-.82-1.11c0-.44,1.41-11,10.15-18.08a1,1,0,0,1,.92-.18,1,1,0,0,1,.66.65c.11.34,2.58,8.44-4.65,19.22A1,1,0,0,1,119.09,208.64ZM115,205.89l3.64.65c4.49-7,4.62-12.7,4.33-15.36A28.56,28.56,0,0,0,115,205.89Z" fill="#093f68"/><polygon points="119.67 218.55 108.94 218.55 107.36 205.49 121.26 205.49 119.67 218.55" fill="#fff"/><path d="M119.67,219.55H108.94a1,1,0,0,1-1-.88l-1.59-13a1,1,0,0,1,1-1.13h13.9a1,1,0,0,1,.75.34,1,1,0,0,1,.24.79l-1.59,13A1,1,0,0,1,119.67,219.55Zm-9.84-2h9l1.35-11.06H108.48Z" fill="#093f68"/><path d="M128.68,219a10.27,10.27,0,1,1,20.53,0Z" fill="#007bff" class="target-color"/><path d="M149.21,220H128.68a1,1,0,0,1-1-1,11.27,11.27,0,1,1,22.53,0A1,1,0,0,1,149.21,220Zm-19.47-2h18.42a9.26,9.26,0,0,0-18.42,0Z" fill="#093f68"/><path d="M139,209.73a1,1,0,0,1-1-1v-4.09a1,1,0,0,1,2,0v4.09A1,1,0,0,1,139,209.73Z" fill="#093f68"/><path d="M136.25,205.3a1,1,0,0,1-.95-.68,1,1,0,0,1,.63-1.27c.2-.06.38-.12,6,0a1,1,0,0,1,0,2h0c-2.41,0-5.1-.05-5.53,0Z" fill="#093f68"/></g></svg>